<mxfile host="Electron" agent="Mozilla/5.0 (Macintosh; Intel Mac OS X 10_15_7) AppleWebKit/537.36 (KHTML, like Gecko) draw.io/24.7.17 Chrome/128.0.6613.36 Electron/32.0.1 Safari/537.36" version="24.7.17">
  <diagram id="C5RBs43oDa-KdzZeNtuy" name="Page-1">
    <mxGraphModel dx="1050" dy="587" grid="1" gridSize="10" guides="1" tooltips="1" connect="1" arrows="1" fold="1" page="1" pageScale="1" pageWidth="827" pageHeight="1169" math="0" shadow="0">
      <root>
        <mxCell id="WIyWlLk6GJQsqaUBKTNV-0" />
        <mxCell id="WIyWlLk6GJQsqaUBKTNV-1" parent="WIyWlLk6GJQsqaUBKTNV-0" />
        <mxCell id="as6smuWvLSpgrDhWYcCL-2" value="Library" style="swimlane;fontStyle=1;align=center;verticalAlign=top;childLayout=stackLayout;horizontal=1;startSize=26;horizontalStack=0;resizeParent=1;resizeParentMax=0;resizeLast=0;collapsible=1;marginBottom=0;whiteSpace=wrap;html=1;fontFamily=Verdana;" parent="WIyWlLk6GJQsqaUBKTNV-1" vertex="1">
          <mxGeometry x="58" y="81" width="160" height="68" as="geometry" />
        </mxCell>
        <mxCell id="as6smuWvLSpgrDhWYcCL-3" value="id: int&lt;div&gt;name: String&lt;/div&gt;" style="text;strokeColor=none;fillColor=none;align=left;verticalAlign=top;spacingLeft=4;spacingRight=4;overflow=hidden;rotatable=0;points=[[0,0.5],[1,0.5]];portConstraint=eastwest;whiteSpace=wrap;html=1;fontFamily=Verdana;" parent="as6smuWvLSpgrDhWYcCL-2" vertex="1">
          <mxGeometry y="26" width="160" height="34" as="geometry" />
        </mxCell>
        <mxCell id="as6smuWvLSpgrDhWYcCL-4" value="" style="line;strokeWidth=1;fillColor=none;align=left;verticalAlign=middle;spacingTop=-1;spacingLeft=3;spacingRight=3;rotatable=0;labelPosition=right;points=[];portConstraint=eastwest;strokeColor=inherit;fontFamily=Verdana;" parent="as6smuWvLSpgrDhWYcCL-2" vertex="1">
          <mxGeometry y="60" width="160" height="8" as="geometry" />
        </mxCell>
        <mxCell id="as6smuWvLSpgrDhWYcCL-6" value="&lt;i&gt;Staff&lt;/i&gt;" style="swimlane;fontStyle=1;align=center;verticalAlign=top;childLayout=stackLayout;horizontal=1;startSize=26;horizontalStack=0;resizeParent=1;resizeParentMax=0;resizeLast=0;collapsible=1;marginBottom=0;whiteSpace=wrap;html=1;fontFamily=Verdana;" parent="WIyWlLk6GJQsqaUBKTNV-1" vertex="1">
          <mxGeometry x="619" y="703" width="160" height="114" as="geometry" />
        </mxCell>
        <mxCell id="as6smuWvLSpgrDhWYcCL-7" value="id: int&lt;div&gt;name: String&lt;/div&gt;&lt;div&gt;position: String&lt;/div&gt;" style="text;strokeColor=none;fillColor=none;align=left;verticalAlign=top;spacingLeft=4;spacingRight=4;overflow=hidden;rotatable=0;points=[[0,0.5],[1,0.5]];portConstraint=eastwest;whiteSpace=wrap;html=1;fontFamily=Verdana;" parent="as6smuWvLSpgrDhWYcCL-6" vertex="1">
          <mxGeometry y="26" width="160" height="54" as="geometry" />
        </mxCell>
        <mxCell id="as6smuWvLSpgrDhWYcCL-8" value="" style="line;strokeWidth=1;fillColor=none;align=left;verticalAlign=middle;spacingTop=-1;spacingLeft=3;spacingRight=3;rotatable=0;labelPosition=right;points=[];portConstraint=eastwest;strokeColor=inherit;fontFamily=Verdana;" parent="as6smuWvLSpgrDhWYcCL-6" vertex="1">
          <mxGeometry y="80" width="160" height="8" as="geometry" />
        </mxCell>
        <mxCell id="as6smuWvLSpgrDhWYcCL-9" value="&lt;i&gt;work(): Void&lt;/i&gt;" style="text;strokeColor=none;fillColor=none;align=left;verticalAlign=top;spacingLeft=4;spacingRight=4;overflow=hidden;rotatable=0;points=[[0,0.5],[1,0.5]];portConstraint=eastwest;whiteSpace=wrap;html=1;fontFamily=Verdana;" parent="as6smuWvLSpgrDhWYcCL-6" vertex="1">
          <mxGeometry y="88" width="160" height="26" as="geometry" />
        </mxCell>
        <mxCell id="as6smuWvLSpgrDhWYcCL-10" value="LibraryStaff" style="swimlane;fontStyle=1;align=center;verticalAlign=top;childLayout=stackLayout;horizontal=1;startSize=26;horizontalStack=0;resizeParent=1;resizeParentMax=0;resizeLast=0;collapsible=1;marginBottom=0;whiteSpace=wrap;html=1;fontFamily=Verdana;" parent="WIyWlLk6GJQsqaUBKTNV-1" vertex="1">
          <mxGeometry x="318" y="710" width="220" height="230" as="geometry" />
        </mxCell>
        <mxCell id="as6smuWvLSpgrDhWYcCL-11" value="supervisor: Library Staff" style="text;strokeColor=none;fillColor=none;align=left;verticalAlign=top;spacingLeft=4;spacingRight=4;overflow=hidden;rotatable=0;points=[[0,0.5],[1,0.5]];portConstraint=eastwest;whiteSpace=wrap;html=1;fontFamily=Verdana;" parent="as6smuWvLSpgrDhWYcCL-10" vertex="1">
          <mxGeometry y="26" width="220" height="24" as="geometry" />
        </mxCell>
        <mxCell id="as6smuWvLSpgrDhWYcCL-12" value="" style="line;strokeWidth=1;fillColor=none;align=left;verticalAlign=middle;spacingTop=-1;spacingLeft=3;spacingRight=3;rotatable=0;labelPosition=right;points=[];portConstraint=eastwest;strokeColor=inherit;fontFamily=Verdana;" parent="as6smuWvLSpgrDhWYcCL-10" vertex="1">
          <mxGeometry y="50" width="220" height="8" as="geometry" />
        </mxCell>
        <mxCell id="as6smuWvLSpgrDhWYcCL-13" value="&lt;span style=&quot;background-color: initial;&quot;&gt;serveReader(): void&lt;/span&gt;&lt;br&gt;&lt;span style=&quot;background-color: initial;&quot;&gt;manageReadingRoom(): void&lt;/span&gt;&lt;div&gt;&lt;span style=&quot;background-color: initial;&quot;&gt;getCopies(): string[*]&lt;/span&gt;&lt;/div&gt;&lt;div&gt;&lt;span style=&quot;background-color: initial;&quot;&gt;checkAvailability: boolean&lt;/span&gt;&lt;/div&gt;&lt;div&gt;&lt;span style=&quot;background-color: initial;&quot;&gt;identificationAnalysis: boolean&lt;br&gt;&lt;/span&gt;&lt;/div&gt;&lt;div&gt;&lt;span style=&quot;background-color: initial;&quot;&gt;getReaderPreferences: string[*]&lt;br&gt;&lt;/span&gt;&lt;/div&gt;&lt;div&gt;&lt;span style=&quot;background-color: initial;&quot;&gt;readerCheckUp: boolean&lt;br&gt;&lt;/span&gt;&lt;/div&gt;&lt;div&gt;BookReservation(): int&lt;/div&gt;&lt;div&gt;chooseBookCopy(): int&lt;/div&gt;&lt;div&gt;getRoom(): int&lt;/div&gt;&lt;div&gt;updateReservationRequest(): int&lt;/div&gt;" style="text;strokeColor=none;fillColor=none;align=left;verticalAlign=top;spacingLeft=4;spacingRight=4;overflow=hidden;rotatable=0;points=[[0,0.5],[1,0.5]];portConstraint=eastwest;whiteSpace=wrap;html=1;fontFamily=Verdana;" parent="as6smuWvLSpgrDhWYcCL-10" vertex="1">
          <mxGeometry y="58" width="220" height="172" as="geometry" />
        </mxCell>
        <mxCell id="0zHonlmWkyNShyO6j52k-0" value="" style="endArrow=open;endFill=1;endSize=12;html=1;rounded=0;exitX=-0.003;exitY=0.012;exitDx=0;exitDy=0;exitPerimeter=0;entryX=0.374;entryY=1;entryDx=0;entryDy=0;entryPerimeter=0;" edge="1" parent="as6smuWvLSpgrDhWYcCL-10" source="as6smuWvLSpgrDhWYcCL-13" target="as6smuWvLSpgrDhWYcCL-13">
          <mxGeometry width="160" relative="1" as="geometry">
            <mxPoint x="12" y="110" as="sourcePoint" />
            <mxPoint x="42" y="250" as="targetPoint" />
            <Array as="points">
              <mxPoint x="-38" y="60" />
              <mxPoint x="-38" y="270" />
              <mxPoint x="82" y="270" />
            </Array>
          </mxGeometry>
        </mxCell>
        <mxCell id="as6smuWvLSpgrDhWYcCL-15" value="Interface&lt;div&gt;IReservable&lt;/div&gt;" style="swimlane;fontStyle=1;align=center;verticalAlign=top;childLayout=stackLayout;horizontal=1;startSize=40;horizontalStack=0;resizeParent=1;resizeParentMax=0;resizeLast=0;collapsible=1;marginBottom=0;whiteSpace=wrap;html=1;fontFamily=Verdana;" parent="WIyWlLk6GJQsqaUBKTNV-1" vertex="1">
          <mxGeometry x="369" y="554.5" width="260" height="100" as="geometry" />
        </mxCell>
        <mxCell id="as6smuWvLSpgrDhWYcCL-17" value="" style="line;strokeWidth=1;fillColor=none;align=left;verticalAlign=middle;spacingTop=-1;spacingLeft=3;spacingRight=3;rotatable=0;labelPosition=right;points=[];portConstraint=eastwest;strokeColor=inherit;fontFamily=Verdana;" parent="as6smuWvLSpgrDhWYcCL-15" vertex="1">
          <mxGeometry y="40" width="260" height="8" as="geometry" />
        </mxCell>
        <mxCell id="as6smuWvLSpgrDhWYcCL-18" value="&lt;div&gt;&lt;code&gt;reserve(&lt;/code&gt;&lt;span style=&quot;background-color: initial;&quot;&gt;reader: Reader&lt;/span&gt;&lt;span style=&quot;background-color: initial;&quot;&gt;): void&lt;/span&gt;&lt;/div&gt;&lt;div&gt;cancelReservation(reader: Reader): void&lt;br&gt;&lt;/div&gt;&lt;div&gt;isReserved(): boolean&lt;br&gt;&lt;/div&gt;" style="text;strokeColor=none;fillColor=none;align=left;verticalAlign=top;spacingLeft=4;spacingRight=4;overflow=hidden;rotatable=0;points=[[0,0.5],[1,0.5]];portConstraint=eastwest;whiteSpace=wrap;html=1;fontFamily=Verdana;" parent="as6smuWvLSpgrDhWYcCL-15" vertex="1">
          <mxGeometry y="48" width="260" height="52" as="geometry" />
        </mxCell>
        <mxCell id="as6smuWvLSpgrDhWYcCL-19" value="Book" style="swimlane;fontStyle=1;align=center;verticalAlign=top;childLayout=stackLayout;horizontal=1;startSize=26;horizontalStack=0;resizeParent=1;resizeParentMax=0;resizeLast=0;collapsible=1;marginBottom=0;whiteSpace=wrap;html=1;fontFamily=Verdana;" parent="WIyWlLk6GJQsqaUBKTNV-1" vertex="1">
          <mxGeometry x="283" y="180" width="260" height="150" as="geometry" />
        </mxCell>
        <mxCell id="as6smuWvLSpgrDhWYcCL-20" value="id: int&lt;div&gt;title: String&lt;/div&gt;&lt;div&gt;author: String&lt;/div&gt;&lt;div&gt;reservedBy: Reader&lt;br&gt;&lt;/div&gt;" style="text;strokeColor=none;fillColor=none;align=left;verticalAlign=top;spacingLeft=4;spacingRight=4;overflow=hidden;rotatable=0;points=[[0,0.5],[1,0.5]];portConstraint=eastwest;whiteSpace=wrap;html=1;fontFamily=Verdana;" parent="as6smuWvLSpgrDhWYcCL-19" vertex="1">
          <mxGeometry y="26" width="260" height="64" as="geometry" />
        </mxCell>
        <mxCell id="as6smuWvLSpgrDhWYcCL-21" value="" style="line;strokeWidth=1;fillColor=none;align=left;verticalAlign=middle;spacingTop=-1;spacingLeft=3;spacingRight=3;rotatable=0;labelPosition=right;points=[];portConstraint=eastwest;strokeColor=inherit;fontFamily=Verdana;" parent="as6smuWvLSpgrDhWYcCL-19" vertex="1">
          <mxGeometry y="90" width="260" height="8" as="geometry" />
        </mxCell>
        <mxCell id="as6smuWvLSpgrDhWYcCL-22" value="&lt;div&gt;reserve(reader: Reader): void&lt;/div&gt;&lt;div&gt;cancelReservation(reader: Reader): void&lt;br&gt;&lt;/div&gt;&lt;div&gt;isReserved(): boolean&lt;br&gt;&lt;/div&gt;" style="text;strokeColor=none;fillColor=none;align=left;verticalAlign=top;spacingLeft=4;spacingRight=4;overflow=hidden;rotatable=0;points=[[0,0.5],[1,0.5]];portConstraint=eastwest;whiteSpace=wrap;html=1;fontFamily=Verdana;" parent="as6smuWvLSpgrDhWYcCL-19" vertex="1">
          <mxGeometry y="98" width="260" height="52" as="geometry" />
        </mxCell>
        <mxCell id="as6smuWvLSpgrDhWYcCL-23" value="Category" style="swimlane;fontStyle=1;align=center;verticalAlign=top;childLayout=stackLayout;horizontal=1;startSize=26;horizontalStack=0;resizeParent=1;resizeParentMax=0;resizeLast=0;collapsible=1;marginBottom=0;whiteSpace=wrap;html=1;fontFamily=Verdana;" parent="WIyWlLk6GJQsqaUBKTNV-1" vertex="1">
          <mxGeometry x="333" y="401" width="160" height="58" as="geometry" />
        </mxCell>
        <mxCell id="as6smuWvLSpgrDhWYcCL-24" value="name: String" style="text;strokeColor=none;fillColor=none;align=left;verticalAlign=top;spacingLeft=4;spacingRight=4;overflow=hidden;rotatable=0;points=[[0,0.5],[1,0.5]];portConstraint=eastwest;whiteSpace=wrap;html=1;fontFamily=Verdana;" parent="as6smuWvLSpgrDhWYcCL-23" vertex="1">
          <mxGeometry y="26" width="160" height="24" as="geometry" />
        </mxCell>
        <mxCell id="as6smuWvLSpgrDhWYcCL-25" value="" style="line;strokeWidth=1;fillColor=none;align=left;verticalAlign=middle;spacingTop=-1;spacingLeft=3;spacingRight=3;rotatable=0;labelPosition=right;points=[];portConstraint=eastwest;strokeColor=inherit;fontFamily=Verdana;" parent="as6smuWvLSpgrDhWYcCL-23" vertex="1">
          <mxGeometry y="50" width="160" height="8" as="geometry" />
        </mxCell>
        <mxCell id="as6smuWvLSpgrDhWYcCL-27" value="Reader" style="swimlane;fontStyle=1;align=center;verticalAlign=top;childLayout=stackLayout;horizontal=1;startSize=26;horizontalStack=0;resizeParent=1;resizeParentMax=0;resizeLast=0;collapsible=1;marginBottom=0;whiteSpace=wrap;html=1;fontFamily=Verdana;" parent="WIyWlLk6GJQsqaUBKTNV-1" vertex="1">
          <mxGeometry x="589" y="375" width="210" height="110" as="geometry" />
        </mxCell>
        <mxCell id="as6smuWvLSpgrDhWYcCL-28" value="id: int&lt;div&gt;name: String&lt;/div&gt;" style="text;strokeColor=none;fillColor=none;align=left;verticalAlign=top;spacingLeft=4;spacingRight=4;overflow=hidden;rotatable=0;points=[[0,0.5],[1,0.5]];portConstraint=eastwest;whiteSpace=wrap;html=1;fontFamily=Verdana;" parent="as6smuWvLSpgrDhWYcCL-27" vertex="1">
          <mxGeometry y="26" width="210" height="34" as="geometry" />
        </mxCell>
        <mxCell id="as6smuWvLSpgrDhWYcCL-29" value="" style="line;strokeWidth=1;fillColor=none;align=left;verticalAlign=middle;spacingTop=-1;spacingLeft=3;spacingRight=3;rotatable=0;labelPosition=right;points=[];portConstraint=eastwest;strokeColor=inherit;fontFamily=Verdana;" parent="as6smuWvLSpgrDhWYcCL-27" vertex="1">
          <mxGeometry y="60" width="210" height="8" as="geometry" />
        </mxCell>
        <mxCell id="as6smuWvLSpgrDhWYcCL-30" value="placeOrder(book: Book): Order&lt;div&gt;cancelOrder(order: Order): void&lt;br&gt;&lt;/div&gt;" style="text;strokeColor=none;fillColor=none;align=left;verticalAlign=top;spacingLeft=4;spacingRight=4;overflow=hidden;rotatable=0;points=[[0,0.5],[1,0.5]];portConstraint=eastwest;whiteSpace=wrap;html=1;fontFamily=Verdana;" parent="as6smuWvLSpgrDhWYcCL-27" vertex="1">
          <mxGeometry y="68" width="210" height="42" as="geometry" />
        </mxCell>
        <mxCell id="as6smuWvLSpgrDhWYcCL-31" value="Order" style="swimlane;fontStyle=1;align=center;verticalAlign=top;childLayout=stackLayout;horizontal=1;startSize=26;horizontalStack=0;resizeParent=1;resizeParentMax=0;resizeLast=0;collapsible=1;marginBottom=0;whiteSpace=wrap;html=1;fontFamily=Verdana;" parent="WIyWlLk6GJQsqaUBKTNV-1" vertex="1">
          <mxGeometry x="619" y="205" width="160" height="100" as="geometry" />
        </mxCell>
        <mxCell id="as6smuWvLSpgrDhWYcCL-32" value="orderNumber: int&lt;div&gt;&lt;br&gt;&lt;/div&gt;&lt;div&gt;&lt;br&gt;&lt;/div&gt;" style="text;strokeColor=none;fillColor=none;align=left;verticalAlign=top;spacingLeft=4;spacingRight=4;overflow=hidden;rotatable=0;points=[[0,0.5],[1,0.5]];portConstraint=eastwest;whiteSpace=wrap;html=1;fontFamily=Verdana;" parent="as6smuWvLSpgrDhWYcCL-31" vertex="1">
          <mxGeometry y="26" width="160" height="24" as="geometry" />
        </mxCell>
        <mxCell id="as6smuWvLSpgrDhWYcCL-33" value="" style="line;strokeWidth=1;fillColor=none;align=left;verticalAlign=middle;spacingTop=-1;spacingLeft=3;spacingRight=3;rotatable=0;labelPosition=right;points=[];portConstraint=eastwest;strokeColor=inherit;fontFamily=Verdana;" parent="as6smuWvLSpgrDhWYcCL-31" vertex="1">
          <mxGeometry y="50" width="160" height="8" as="geometry" />
        </mxCell>
        <mxCell id="as6smuWvLSpgrDhWYcCL-34" value="confirm(): void&lt;div&gt;cancel(): void&lt;/div&gt;" style="text;strokeColor=none;fillColor=none;align=left;verticalAlign=top;spacingLeft=4;spacingRight=4;overflow=hidden;rotatable=0;points=[[0,0.5],[1,0.5]];portConstraint=eastwest;whiteSpace=wrap;html=1;fontFamily=Verdana;" parent="as6smuWvLSpgrDhWYcCL-31" vertex="1">
          <mxGeometry y="58" width="160" height="42" as="geometry" />
        </mxCell>
        <mxCell id="as6smuWvLSpgrDhWYcCL-35" value="&lt;i&gt;Room&lt;/i&gt;" style="swimlane;fontStyle=1;align=center;verticalAlign=top;childLayout=stackLayout;horizontal=1;startSize=26;horizontalStack=0;resizeParent=1;resizeParentMax=0;resizeLast=0;collapsible=1;marginBottom=0;whiteSpace=wrap;html=1;fontFamily=Verdana;" parent="WIyWlLk6GJQsqaUBKTNV-1" vertex="1">
          <mxGeometry x="58" y="205" width="160" height="110" as="geometry" />
        </mxCell>
        <mxCell id="as6smuWvLSpgrDhWYcCL-36" value="id: int&lt;div&gt;name: String&lt;/div&gt;" style="text;strokeColor=none;fillColor=none;align=left;verticalAlign=top;spacingLeft=4;spacingRight=4;overflow=hidden;rotatable=0;points=[[0,0.5],[1,0.5]];portConstraint=eastwest;whiteSpace=wrap;html=1;fontFamily=Verdana;" parent="as6smuWvLSpgrDhWYcCL-35" vertex="1">
          <mxGeometry y="26" width="160" height="34" as="geometry" />
        </mxCell>
        <mxCell id="as6smuWvLSpgrDhWYcCL-37" value="" style="line;strokeWidth=1;fillColor=none;align=left;verticalAlign=middle;spacingTop=-1;spacingLeft=3;spacingRight=3;rotatable=0;labelPosition=right;points=[];portConstraint=eastwest;strokeColor=inherit;fontFamily=Verdana;" parent="as6smuWvLSpgrDhWYcCL-35" vertex="1">
          <mxGeometry y="60" width="160" height="8" as="geometry" />
        </mxCell>
        <mxCell id="as6smuWvLSpgrDhWYcCL-38" value="open(): void&lt;div&gt;close(): void&lt;/div&gt;" style="text;strokeColor=none;fillColor=none;align=left;verticalAlign=top;spacingLeft=4;spacingRight=4;overflow=hidden;rotatable=0;points=[[0,0.5],[1,0.5]];portConstraint=eastwest;whiteSpace=wrap;html=1;fontFamily=Verdana;" parent="as6smuWvLSpgrDhWYcCL-35" vertex="1">
          <mxGeometry y="68" width="160" height="42" as="geometry" />
        </mxCell>
        <mxCell id="as6smuWvLSpgrDhWYcCL-39" value="ReadingRoom" style="swimlane;fontStyle=1;align=center;verticalAlign=top;childLayout=stackLayout;horizontal=1;startSize=26;horizontalStack=0;resizeParent=1;resizeParentMax=0;resizeLast=0;collapsible=1;marginBottom=0;whiteSpace=wrap;html=1;fontFamily=Verdana;" parent="WIyWlLk6GJQsqaUBKTNV-1" vertex="1">
          <mxGeometry x="28" y="380" width="220" height="110" as="geometry" />
        </mxCell>
        <mxCell id="as6smuWvLSpgrDhWYcCL-40" value="capacity: int" style="text;strokeColor=none;fillColor=none;align=left;verticalAlign=top;spacingLeft=4;spacingRight=4;overflow=hidden;rotatable=0;points=[[0,0.5],[1,0.5]];portConstraint=eastwest;whiteSpace=wrap;html=1;fontFamily=Verdana;" parent="as6smuWvLSpgrDhWYcCL-39" vertex="1">
          <mxGeometry y="26" width="220" height="24" as="geometry" />
        </mxCell>
        <mxCell id="as6smuWvLSpgrDhWYcCL-41" value="" style="line;strokeWidth=1;fillColor=none;align=left;verticalAlign=middle;spacingTop=-1;spacingLeft=3;spacingRight=3;rotatable=0;labelPosition=right;points=[];portConstraint=eastwest;strokeColor=inherit;fontFamily=Verdana;" parent="as6smuWvLSpgrDhWYcCL-39" vertex="1">
          <mxGeometry y="50" width="220" height="8" as="geometry" />
        </mxCell>
        <mxCell id="as6smuWvLSpgrDhWYcCL-42" value="reserveSeat(reader: Reader): void&lt;div&gt;releaseSeat(reader: Reader): void&lt;br&gt;&lt;/div&gt;&lt;div&gt;manageRoom(): void&lt;br&gt;&lt;/div&gt;" style="text;strokeColor=none;fillColor=none;align=left;verticalAlign=top;spacingLeft=4;spacingRight=4;overflow=hidden;rotatable=0;points=[[0,0.5],[1,0.5]];portConstraint=eastwest;whiteSpace=wrap;html=1;fontFamily=Verdana;" parent="as6smuWvLSpgrDhWYcCL-39" vertex="1">
          <mxGeometry y="58" width="220" height="52" as="geometry" />
        </mxCell>
        <mxCell id="as6smuWvLSpgrDhWYcCL-43" value="Seat" style="swimlane;fontStyle=1;align=center;verticalAlign=top;childLayout=stackLayout;horizontal=1;startSize=26;horizontalStack=0;resizeParent=1;resizeParentMax=0;resizeLast=0;collapsible=1;marginBottom=0;whiteSpace=wrap;html=1;fontFamily=Verdana;" parent="WIyWlLk6GJQsqaUBKTNV-1" vertex="1">
          <mxGeometry x="29" y="550" width="260" height="140" as="geometry" />
        </mxCell>
        <mxCell id="as6smuWvLSpgrDhWYcCL-44" value="seatNumber: int&lt;div&gt;isAvailable: boolean&lt;br&gt;&lt;/div&gt;&lt;div&gt;reservedBy: Reader&lt;br&gt;&lt;/div&gt;" style="text;strokeColor=none;fillColor=none;align=left;verticalAlign=top;spacingLeft=4;spacingRight=4;overflow=hidden;rotatable=0;points=[[0,0.5],[1,0.5]];portConstraint=eastwest;whiteSpace=wrap;html=1;fontFamily=Verdana;" parent="as6smuWvLSpgrDhWYcCL-43" vertex="1">
          <mxGeometry y="26" width="260" height="54" as="geometry" />
        </mxCell>
        <mxCell id="as6smuWvLSpgrDhWYcCL-45" value="" style="line;strokeWidth=1;fillColor=none;align=left;verticalAlign=middle;spacingTop=-1;spacingLeft=3;spacingRight=3;rotatable=0;labelPosition=right;points=[];portConstraint=eastwest;strokeColor=inherit;fontFamily=Verdana;" parent="as6smuWvLSpgrDhWYcCL-43" vertex="1">
          <mxGeometry y="80" width="260" height="8" as="geometry" />
        </mxCell>
        <mxCell id="as6smuWvLSpgrDhWYcCL-46" value="&lt;div&gt;reserve(reader: Reader): void&lt;/div&gt;&lt;div&gt;cancelReservation(reader: Reader): void&lt;br&gt;&lt;/div&gt;&lt;div&gt;isReserved(): boolean&lt;br&gt;&lt;/div&gt;" style="text;strokeColor=none;fillColor=none;align=left;verticalAlign=top;spacingLeft=4;spacingRight=4;overflow=hidden;rotatable=0;points=[[0,0.5],[1,0.5]];portConstraint=eastwest;whiteSpace=wrap;html=1;fontFamily=Verdana;" parent="as6smuWvLSpgrDhWYcCL-43" vertex="1">
          <mxGeometry y="88" width="260" height="52" as="geometry" />
        </mxCell>
        <mxCell id="as6smuWvLSpgrDhWYcCL-47" value="Reservation" style="swimlane;fontStyle=1;align=center;verticalAlign=top;childLayout=stackLayout;horizontal=1;startSize=26;horizontalStack=0;resizeParent=1;resizeParentMax=0;resizeLast=0;collapsible=1;marginBottom=0;whiteSpace=wrap;html=1;fontFamily=Verdana;" parent="WIyWlLk6GJQsqaUBKTNV-1" vertex="1">
          <mxGeometry x="589" y="30" width="200" height="140" as="geometry" />
        </mxCell>
        <mxCell id="as6smuWvLSpgrDhWYcCL-48" value="reservationId: int&lt;div&gt;reservable: Reservable&lt;br&gt;&lt;/div&gt;&lt;div&gt;reader: Reader&lt;br&gt;&lt;/div&gt;&lt;div&gt;reservationDate: Date&lt;br&gt;&lt;/div&gt;" style="text;strokeColor=none;fillColor=none;align=left;verticalAlign=top;spacingLeft=4;spacingRight=4;overflow=hidden;rotatable=0;points=[[0,0.5],[1,0.5]];portConstraint=eastwest;whiteSpace=wrap;html=1;fontFamily=Verdana;" parent="as6smuWvLSpgrDhWYcCL-47" vertex="1">
          <mxGeometry y="26" width="200" height="64" as="geometry" />
        </mxCell>
        <mxCell id="as6smuWvLSpgrDhWYcCL-49" value="" style="line;strokeWidth=1;fillColor=none;align=left;verticalAlign=middle;spacingTop=-1;spacingLeft=3;spacingRight=3;rotatable=0;labelPosition=right;points=[];portConstraint=eastwest;strokeColor=inherit;fontFamily=Verdana;" parent="as6smuWvLSpgrDhWYcCL-47" vertex="1">
          <mxGeometry y="90" width="200" height="8" as="geometry" />
        </mxCell>
        <mxCell id="as6smuWvLSpgrDhWYcCL-50" value="confirm(): void&lt;div&gt;cancel(): void&lt;br&gt;&lt;/div&gt;" style="text;strokeColor=none;fillColor=none;align=left;verticalAlign=top;spacingLeft=4;spacingRight=4;overflow=hidden;rotatable=0;points=[[0,0.5],[1,0.5]];portConstraint=eastwest;whiteSpace=wrap;html=1;fontFamily=Verdana;" parent="as6smuWvLSpgrDhWYcCL-47" vertex="1">
          <mxGeometry y="98" width="200" height="42" as="geometry" />
        </mxCell>
        <mxCell id="as6smuWvLSpgrDhWYcCL-55" value="Extends" style="endArrow=block;endSize=16;endFill=0;html=1;rounded=0;exitX=1;exitY=0.5;exitDx=0;exitDy=0;entryX=0.002;entryY=0.391;entryDx=0;entryDy=0;entryPerimeter=0;" parent="WIyWlLk6GJQsqaUBKTNV-1" source="as6smuWvLSpgrDhWYcCL-11" target="as6smuWvLSpgrDhWYcCL-7" edge="1">
          <mxGeometry width="160" relative="1" as="geometry">
            <mxPoint x="309" y="600" as="sourcePoint" />
            <mxPoint x="616" y="768" as="targetPoint" />
          </mxGeometry>
        </mxCell>
        <mxCell id="as6smuWvLSpgrDhWYcCL-56" value="" style="endArrow=open;endFill=1;endSize=12;html=1;rounded=0;exitX=-0.001;exitY=0.381;exitDx=0;exitDy=0;exitPerimeter=0;" parent="WIyWlLk6GJQsqaUBKTNV-1" source="as6smuWvLSpgrDhWYcCL-24" target="as6smuWvLSpgrDhWYcCL-39" edge="1">
          <mxGeometry width="160" relative="1" as="geometry">
            <mxPoint x="309" y="400" as="sourcePoint" />
            <mxPoint x="209" y="310" as="targetPoint" />
          </mxGeometry>
        </mxCell>
        <mxCell id="as6smuWvLSpgrDhWYcCL-58" value="Extends" style="endArrow=block;endSize=16;endFill=0;html=1;rounded=0;exitX=0.5;exitY=0;exitDx=0;exitDy=0;" parent="WIyWlLk6GJQsqaUBKTNV-1" source="as6smuWvLSpgrDhWYcCL-39" target="as6smuWvLSpgrDhWYcCL-35" edge="1">
          <mxGeometry width="160" relative="1" as="geometry">
            <mxPoint x="309" y="420" as="sourcePoint" />
            <mxPoint x="469" y="420" as="targetPoint" />
          </mxGeometry>
        </mxCell>
        <mxCell id="as6smuWvLSpgrDhWYcCL-65" value="1" style="endArrow=open;html=1;endSize=12;startArrow=diamondThin;startSize=14;startFill=1;edgeStyle=orthogonalEdgeStyle;align=left;verticalAlign=bottom;rounded=0;exitX=0.547;exitY=1.004;exitDx=0;exitDy=0;exitPerimeter=0;entryX=0.46;entryY=0.002;entryDx=0;entryDy=0;entryPerimeter=0;" parent="WIyWlLk6GJQsqaUBKTNV-1" source="as6smuWvLSpgrDhWYcCL-42" target="as6smuWvLSpgrDhWYcCL-43" edge="1">
          <mxGeometry x="-0.2131" y="-19" relative="1" as="geometry">
            <mxPoint x="309" y="400" as="sourcePoint" />
            <mxPoint x="149" y="550" as="targetPoint" />
            <mxPoint as="offset" />
            <Array as="points" />
          </mxGeometry>
        </mxCell>
        <mxCell id="as6smuWvLSpgrDhWYcCL-66" value="&lt;font style=&quot;font-size: 18px;&quot;&gt;&lt;b&gt;*&lt;/b&gt;&lt;/font&gt;" style="text;html=1;align=center;verticalAlign=middle;resizable=0;points=[];autosize=1;strokeColor=none;fillColor=none;" parent="WIyWlLk6GJQsqaUBKTNV-1" vertex="1">
          <mxGeometry x="312" y="415" width="30" height="40" as="geometry" />
        </mxCell>
        <mxCell id="as6smuWvLSpgrDhWYcCL-67" value="1" style="endArrow=open;html=1;endSize=12;startArrow=diamondThin;startSize=14;startFill=0;edgeStyle=orthogonalEdgeStyle;align=left;verticalAlign=bottom;rounded=0;" parent="WIyWlLk6GJQsqaUBKTNV-1" source="as6smuWvLSpgrDhWYcCL-39" target="as6smuWvLSpgrDhWYcCL-10" edge="1">
          <mxGeometry x="-0.7647" y="10" relative="1" as="geometry">
            <mxPoint x="319" y="550" as="sourcePoint" />
            <mxPoint x="479" y="550" as="targetPoint" />
            <Array as="points">
              <mxPoint x="209" y="530" />
              <mxPoint x="339" y="530" />
            </Array>
            <mxPoint as="offset" />
          </mxGeometry>
        </mxCell>
        <mxCell id="as6smuWvLSpgrDhWYcCL-68" value="1" style="endArrow=open;html=1;endSize=12;startArrow=diamondThin;startSize=14;startFill=0;edgeStyle=orthogonalEdgeStyle;align=left;verticalAlign=bottom;rounded=0;" parent="WIyWlLk6GJQsqaUBKTNV-1" source="as6smuWvLSpgrDhWYcCL-31" target="as6smuWvLSpgrDhWYcCL-19" edge="1">
          <mxGeometry x="-0.7368" y="40" relative="1" as="geometry">
            <mxPoint x="319" y="350" as="sourcePoint" />
            <mxPoint x="479" y="350" as="targetPoint" />
            <mxPoint as="offset" />
            <Array as="points">
              <mxPoint x="559" y="270" />
              <mxPoint x="559" y="270" />
            </Array>
          </mxGeometry>
        </mxCell>
        <mxCell id="as6smuWvLSpgrDhWYcCL-69" value="&lt;font style=&quot;font-size: 18px;&quot;&gt;&lt;b&gt;*&lt;/b&gt;&lt;/font&gt;" style="text;html=1;align=center;verticalAlign=middle;resizable=0;points=[];autosize=1;strokeColor=none;fillColor=none;" parent="WIyWlLk6GJQsqaUBKTNV-1" vertex="1">
          <mxGeometry x="536" y="240" width="30" height="40" as="geometry" />
        </mxCell>
        <mxCell id="as6smuWvLSpgrDhWYcCL-70" value="1" style="endArrow=open;html=1;endSize=12;startArrow=diamondThin;startSize=14;startFill=1;edgeStyle=orthogonalEdgeStyle;align=left;verticalAlign=bottom;rounded=0;exitX=0.5;exitY=0;exitDx=0;exitDy=0;" parent="WIyWlLk6GJQsqaUBKTNV-1" source="as6smuWvLSpgrDhWYcCL-27" target="as6smuWvLSpgrDhWYcCL-31" edge="1">
          <mxGeometry x="-0.9985" y="15" relative="1" as="geometry">
            <mxPoint x="319" y="320" as="sourcePoint" />
            <mxPoint x="479" y="320" as="targetPoint" />
            <mxPoint as="offset" />
            <Array as="points">
              <mxPoint x="694" y="350" />
              <mxPoint x="694" y="350" />
            </Array>
          </mxGeometry>
        </mxCell>
        <mxCell id="as6smuWvLSpgrDhWYcCL-71" value="1" style="endArrow=open;html=1;endSize=12;startArrow=diamondThin;startSize=14;startFill=0;edgeStyle=orthogonalEdgeStyle;align=left;verticalAlign=bottom;rounded=0;exitX=0.25;exitY=0;exitDx=0;exitDy=0;" parent="WIyWlLk6GJQsqaUBKTNV-1" source="as6smuWvLSpgrDhWYcCL-10" edge="1">
          <mxGeometry x="-1" y="-13" relative="1" as="geometry">
            <mxPoint x="319" y="470" as="sourcePoint" />
            <mxPoint x="619" y="290" as="targetPoint" />
            <Array as="points">
              <mxPoint x="366" y="680" />
              <mxPoint x="349" y="680" />
              <mxPoint x="349" y="520" />
              <mxPoint x="569" y="520" />
              <mxPoint x="569" y="290" />
              <mxPoint x="619" y="290" />
            </Array>
            <mxPoint x="1" as="offset" />
          </mxGeometry>
        </mxCell>
        <mxCell id="as6smuWvLSpgrDhWYcCL-72" value="Use" style="endArrow=open;endSize=12;dashed=1;html=1;rounded=0;exitX=-0.002;exitY=0.254;exitDx=0;exitDy=0;exitPerimeter=0;entryX=0.723;entryY=-0.005;entryDx=0;entryDy=0;entryPerimeter=0;" parent="WIyWlLk6GJQsqaUBKTNV-1" source="as6smuWvLSpgrDhWYcCL-50" target="as6smuWvLSpgrDhWYcCL-15" edge="1">
          <mxGeometry x="-0.1437" y="-2" width="160" relative="1" as="geometry">
            <mxPoint x="289" y="380" as="sourcePoint" />
            <mxPoint x="449" y="380" as="targetPoint" />
            <Array as="points">
              <mxPoint x="559" y="139" />
            </Array>
            <mxPoint as="offset" />
          </mxGeometry>
        </mxCell>
        <mxCell id="as6smuWvLSpgrDhWYcCL-74" value="+ руководитель" style="text;html=1;align=center;verticalAlign=middle;resizable=0;points=[];autosize=1;strokeColor=none;fillColor=none;" parent="WIyWlLk6GJQsqaUBKTNV-1" vertex="1">
          <mxGeometry x="283" y="950" width="110" height="30" as="geometry" />
        </mxCell>
        <mxCell id="as6smuWvLSpgrDhWYcCL-75" value="" style="endArrow=open;endFill=1;endSize=12;html=1;rounded=0;entryX=0.75;entryY=0;entryDx=0;entryDy=0;" parent="WIyWlLk6GJQsqaUBKTNV-1" source="as6smuWvLSpgrDhWYcCL-47" target="as6smuWvLSpgrDhWYcCL-19" edge="1">
          <mxGeometry width="160" relative="1" as="geometry">
            <mxPoint x="399" y="330" as="sourcePoint" />
            <mxPoint x="559" y="330" as="targetPoint" />
            <Array as="points">
              <mxPoint x="479" y="100" />
            </Array>
          </mxGeometry>
        </mxCell>
        <mxCell id="as6smuWvLSpgrDhWYcCL-76" value="" style="endArrow=open;endFill=1;endSize=12;html=1;rounded=0;entryX=0.922;entryY=0;entryDx=0;entryDy=0;entryPerimeter=0;" parent="WIyWlLk6GJQsqaUBKTNV-1" target="as6smuWvLSpgrDhWYcCL-43" edge="1">
          <mxGeometry width="160" relative="1" as="geometry">
            <mxPoint x="589" y="81" as="sourcePoint" />
            <mxPoint x="478" y="161" as="targetPoint" />
            <Array as="points">
              <mxPoint x="479" y="81" />
              <mxPoint x="269" y="80" />
            </Array>
          </mxGeometry>
        </mxCell>
        <mxCell id="as6smuWvLSpgrDhWYcCL-77" value="" style="endArrow=block;dashed=1;endFill=0;endSize=12;html=1;rounded=0;exitX=1;exitY=0.5;exitDx=0;exitDy=0;" parent="WIyWlLk6GJQsqaUBKTNV-1" source="as6smuWvLSpgrDhWYcCL-44" target="as6smuWvLSpgrDhWYcCL-15" edge="1">
          <mxGeometry width="160" relative="1" as="geometry">
            <mxPoint x="319" y="450" as="sourcePoint" />
            <mxPoint x="479" y="450" as="targetPoint" />
          </mxGeometry>
        </mxCell>
        <mxCell id="as6smuWvLSpgrDhWYcCL-78" value="" style="endArrow=block;dashed=1;endFill=0;endSize=12;html=1;rounded=0;exitX=0.874;exitY=0.992;exitDx=0;exitDy=0;exitPerimeter=0;entryX=0.537;entryY=0.002;entryDx=0;entryDy=0;entryPerimeter=0;" parent="WIyWlLk6GJQsqaUBKTNV-1" source="as6smuWvLSpgrDhWYcCL-22" target="as6smuWvLSpgrDhWYcCL-15" edge="1">
          <mxGeometry width="160" relative="1" as="geometry">
            <mxPoint x="319" y="400" as="sourcePoint" />
            <mxPoint x="479" y="400" as="targetPoint" />
          </mxGeometry>
        </mxCell>
        <mxCell id="IHWARCIC_PYIJ03m0d9u-0" value="1" style="endArrow=open;html=1;endSize=12;startArrow=diamondThin;startSize=14;startFill=1;edgeStyle=orthogonalEdgeStyle;align=left;verticalAlign=bottom;rounded=0;" parent="WIyWlLk6GJQsqaUBKTNV-1" source="as6smuWvLSpgrDhWYcCL-2" target="as6smuWvLSpgrDhWYcCL-35" edge="1">
          <mxGeometry x="-0.25" y="11" relative="1" as="geometry">
            <mxPoint x="369" y="380" as="sourcePoint" />
            <mxPoint x="529" y="380" as="targetPoint" />
            <mxPoint as="offset" />
          </mxGeometry>
        </mxCell>
        <mxCell id="IHWARCIC_PYIJ03m0d9u-2" value="&lt;font style=&quot;font-size: 18px;&quot;&gt;&lt;b&gt;*&lt;/b&gt;&lt;/font&gt;" style="text;html=1;align=center;verticalAlign=middle;resizable=0;points=[];autosize=1;strokeColor=none;fillColor=none;" parent="WIyWlLk6GJQsqaUBKTNV-1" vertex="1">
          <mxGeometry x="411" y="332" width="30" height="40" as="geometry" />
        </mxCell>
        <mxCell id="IHWARCIC_PYIJ03m0d9u-5" style="edgeStyle=orthogonalEdgeStyle;rounded=0;orthogonalLoop=1;jettySize=auto;html=1;exitX=0.558;exitY=1.002;exitDx=0;exitDy=0;entryX=0.715;entryY=-0.001;entryDx=0;entryDy=0;entryPerimeter=0;exitPerimeter=0;" parent="WIyWlLk6GJQsqaUBKTNV-1" source="as6smuWvLSpgrDhWYcCL-34" edge="1">
          <mxGeometry relative="1" as="geometry">
            <mxPoint x="709" y="335" as="sourcePoint" />
            <mxPoint x="709.1499999999999" y="374.87" as="targetPoint" />
            <Array as="points">
              <mxPoint x="708" y="340" />
              <mxPoint x="709" y="340" />
            </Array>
          </mxGeometry>
        </mxCell>
        <mxCell id="9z1Gs6kLaQaVZAhFer4g-1" value="" style="endArrow=diamondThin;endFill=1;endSize=24;html=1;rounded=0;exitX=0.523;exitY=1.005;exitDx=0;exitDy=0;exitPerimeter=0;entryX=0.537;entryY=0;entryDx=0;entryDy=0;entryPerimeter=0;" parent="WIyWlLk6GJQsqaUBKTNV-1" source="as6smuWvLSpgrDhWYcCL-22" target="as6smuWvLSpgrDhWYcCL-23" edge="1">
          <mxGeometry width="160" relative="1" as="geometry">
            <mxPoint x="379" y="400" as="sourcePoint" />
            <mxPoint x="419" y="400" as="targetPoint" />
          </mxGeometry>
        </mxCell>
        <mxCell id="9z1Gs6kLaQaVZAhFer4g-2" value="1" style="text;html=1;align=center;verticalAlign=middle;resizable=0;points=[];autosize=1;strokeColor=none;fillColor=none;" parent="WIyWlLk6GJQsqaUBKTNV-1" vertex="1">
          <mxGeometry x="375" y="376" width="30" height="30" as="geometry" />
        </mxCell>
        <mxCell id="0zHonlmWkyNShyO6j52k-2" value="" style="endArrow=open;endFill=1;endSize=12;html=1;rounded=0;exitX=0.417;exitY=0.005;exitDx=0;exitDy=0;exitPerimeter=0;entryX=0.45;entryY=0.996;entryDx=0;entryDy=0;entryPerimeter=0;" edge="1" parent="WIyWlLk6GJQsqaUBKTNV-1" source="as6smuWvLSpgrDhWYcCL-23" target="as6smuWvLSpgrDhWYcCL-22">
          <mxGeometry width="160" relative="1" as="geometry">
            <mxPoint x="310" y="390" as="sourcePoint" />
            <mxPoint x="470" y="390" as="targetPoint" />
          </mxGeometry>
        </mxCell>
        <mxCell id="0zHonlmWkyNShyO6j52k-3" value="+ руководитель" style="text;html=1;align=center;verticalAlign=middle;resizable=0;points=[];autosize=1;strokeColor=none;fillColor=none;" vertex="1" parent="WIyWlLk6GJQsqaUBKTNV-1">
          <mxGeometry x="283" y="950" width="110" height="30" as="geometry" />
        </mxCell>
      </root>
    </mxGraphModel>
  </diagram>
</mxfile>
